<svg width="669" height="41" viewBox="0 0 669 41" fill="none" xmlns="http://www.w3.org/2000/svg">
<line x1="18.0005" y1="21" x2="661" y2="21" stroke="#FBE9EA" stroke-width="6"/>
<line x1="17.0005" y1="1.31134e-07" x2="17.0005" y2="41" stroke="#FBE9EA" stroke-width="6"/>
<line x1="3.00049" y1="6" x2="3.00049" y2="36" stroke="#FBE9EA" stroke-width="6"/>
<path d="M667.768 23.2678C668.745 22.2915 668.745 20.7085 667.768 19.7322L651.858 3.82233C650.882 2.84602 649.299 2.84602 648.323 3.82233C647.347 4.79864 647.347 6.38155 648.323 7.35786L662.465 21.5L648.323 35.6421C647.347 36.6184 647.347 38.2014 648.323 39.1777C649.299 40.154 650.882 40.154 651.858 39.1777L667.768 23.2678ZM659 24L666 24L666 19L659 19L659 24Z" fill="#FBE9EA"/>
</svg>
